<?xml version="1.0" encoding="UTF-8"?>
<!DOCTYPE svg PUBLIC "-//W3C//DTD SVG 1.1//EN" "http://www.w3.org/Graphics/SVG/1.1/DTD/svg11.dtd">
<!-- Creator: CorelDRAW -->
<svg xmlns="http://www.w3.org/2000/svg" xml:space="preserve" width="172.182mm" height="180.614mm" version="1.1" style="shape-rendering:geometricPrecision; text-rendering:geometricPrecision; image-rendering:optimizeQuality; fill-rule:evenodd; clip-rule:evenodd"
viewBox="0 0 172181.6 180613.6"
 xmlns:xlink="http://www.w3.org/1999/xlink"
 xmlns:xodm="http://www.corel.com/coreldraw/odm/2003">
 <defs>
  <style type="text/css">
   <![CDATA[
    .fil0 {fill:#A0AEC0}
   ]]>
  </style>
 </defs>
 <g id="Camada_x0020_1">
  <metadata id="CorelCorpID_0Corel-Layer"/>
  <g id="_2328470890160">
   <path class="fil0" d="M151759.1 104811.5c259,8954.7 -8.8,18233.5 6.1,27226.8 3.5,2104.7 386.3,2306.6 -2086,4696.5 -1812.2,1751.9 -3326.3,3688.4 -5103.8,5221.6 -2013.6,1737.1 -3148.4,3087.8 -5483.5,4847l-3780.4 2979c-3706.5,2659.3 -9238.9,5533.2 -13408.9,7244.2 -13845.6,5681 -32383.6,7077 -47215.9,3250 -4513.5,-1164.5 -8433.2,-2397.7 -12580.8,-4136 -649.5,-272.2 -1725.9,-884.1 -2310,-1049.1 -2353.6,-664.6 -11732.9,1313 -29259.8,-5122.2 -4590.6,-1685.5 -11496.2,-5294.4 -15493.7,-8360 -606,-464.7 -1463.8,-1203.6 -2012.1,-1471.8 2354.5,3539.7 4772.2,7352.2 7658.7,10478.2l5410.1 5661.2c1154,1270.2 6673.1,5738.5 7983.6,6662.1 9415.1,6635.4 18381.1,11044.8 30175.4,14140.2 9772.8,2564.8 22574.4,3986.4 33409.8,3413.6 2216.8,-117.2 4576.3,-402.7 6754.4,-566.7 7026.2,-529 17145.7,-3233.7 23501.2,-5803.2 8500.5,-3436.6 13774.8,-6877.5 20711.5,-12332.6 540,-424.7 1676.8,-1635.4 1991.1,-1797.9 2947,-1524.2 -2022.2,10043.5 7540.9,14257.2 4386.2,1932.6 8791.5,481.2 11235.2,-2024.7 3027.6,-3104.7 2623.6,-6809.2 2623.6,-12018.7l0 -58777.1c-0.7,-5113.4 726.4,-9606.1 -2072.9,-12767.9 -2737.8,-3092.5 -6502.6,-2876.1 -11823.2,-2880.7l-44317.6 -6.2c-6622.7,-3.8 -12710.2,-958.6 -15257.5,6424.1 -667.5,1934.6 -407.3,4888.4 238.2,6600.2 1201.5,3186.4 4388.6,5712.1 8638.4,5995.1 4512.9,300.4 10189.7,0.8 14831.2,1.5 9832.1,1.5 19664.5,16.2 29496.5,16.2l0.2 0.1z"/>
   <path class="fil0" d="M128830.7 114578.6c-2311.3,1.2 -4630,27 -6943.6,27.7l-5274.9 -32.3c-1597,-9.2 -1181.4,592.4 -3088.7,2150.6 -632.3,516.6 -1200.5,919.8 -1878.8,1499.4 -1097,937.4 -2703.4,2072.5 -4050.5,2909.3l-4201.6 2730c-1322.7,837.8 -2998.2,1762.4 -4498,2465.9 -1685.2,790.4 -3022.9,1539.1 -4676.2,2259.4 -6984.8,3043.1 -19459.4,7321.4 -26973.2,7584 -12071.4,421.9 -19288.2,689.8 -29487.6,-4322 -3996.1,-1963.6 -7410.3,-7503.2 -9491.9,-11359.7 -5267.3,-9758 -8031.9,-21383.4 -8620.4,-32962 -195.4,-3845.9 -115.3,-9560.9 438.1,-13185.4 1336,-8750.9 2436.6,-12911.1 5982.2,-21221.4 1266.8,-2969 3253.8,-6524.1 4924.5,-8981.3 2874.9,-4228.4 7543.3,-9840.5 11450.2,-12963.1 664.6,-531.2 1132.2,-1022.1 1796.7,-1574.7 1807.3,-1503.1 6237.2,-4447.6 8191.4,-5513.9 13520,-7377.5 26391.6,-10184.2 45609.5,-9037.5 3824.8,228.2 8327.9,1273.8 11748.4,2130.8 6888.1,1725.8 13623.6,4605.8 19546.2,8257.9 2478.7,1528.4 5992.1,4468.5 8414.8,5297.4 8378.6,2866.8 14907.2,-6394.2 9913,-13292.5 -1407.2,-1943.7 -5815.1,-4370.3 -8224.6,-5677.7 -9302.8,-5047.7 -20339.7,-9040.4 -31037.6,-10493.3 -12313.5,-1672.4 -13916.3,-1292.1 -26128.7,-1060 -14375.7,273.2 -31287.3,5341.6 -42750.7,12275.3 -3811.8,2305.5 -8652.6,5786 -11994.8,8847.7 -656.6,601.5 -1098.5,911.1 -1889.3,1673.7 -2942.5,2837.2 -5612.5,5741.4 -8193.3,9089.4l-5597.1 8108.4c-2122.8,3712.3 -5392,9997.2 -6739.5,14103.1 -565.2,1722 -1153.1,3450.6 -1690.1,5266.6 -4245.9,14359.6 -4939.3,34543.6 -256.4,48842.1 1140.6,3482.4 2460.6,6777.2 4176.9,9720.5 4133.6,7088.9 4706.3,7199.7 9040.2,11621.8 8434.2,8605.9 20698.8,13581.7 33203.3,15245 22087.8,2938.1 47920.5,-5555.5 64468,-17622.2l7821.9 -6073c1379.1,-1118 2429.8,-2244.7 3633.1,-3311.6 981.2,-869.9 2798.9,-2488.7 3329.2,-3422.3l-0.1 -0.1z"/>
   <path class="fil0" d="M99916.1 62763c-1833.8,-1879.4 -1931.6,-2589.1 -4762,-4645.5 -6451.3,-4687.3 -13937.1,-6612.2 -22378.1,-4482.7 -2925,737.9 -7456.1,2806.9 -9388.1,4693 -878.6,857.7 -1666.8,1341.1 -2545.6,2332 -14360.6,16191.2 -3337.1,39760.1 9026.6,53360.9l9390.7 9555.9c1518.8,-498.7 3206.3,-1144.3 4681.6,-1690.8l4717.3 -1855.4 -12121.8 -10801.1c-2159.6,-2122.8 -5510.8,-6641.1 -7326.7,-9216.7 -1496,-2121.7 -3708.1,-6105.4 -4673,-8652.7 -2766.1,-7302.3 -4390.3,-13868.9 -947.3,-21567.6 1128.6,-2523.6 3926.5,-5469.3 6302.6,-6835.7 2748.4,-1580.5 6338,-2871.7 10673.9,-2568.7 5698.8,398.3 9796.9,2635.8 12905.9,6734.7 1014,1336.9 1563.9,2725.7 2381.7,4195.4 692,1243.9 2049.8,2739.5 3531.8,3051.5 2258.3,475.4 3959.9,-636.5 4799.2,-1721.8 1824,-2358.5 523.7,-3175 4841.1,-8495 5731.6,-7062.4 19931.3,-7961.6 26603.4,1941.8 2149.1,3189.9 2583.4,5600 2942.6,10334.2l7856.8 6.7c-79.6,-5482.4 -1862.6,-11370.7 -5010.2,-15571.8 -6854.8,-9149 -19552,-11604.1 -30016.8,-7467.2 -3543.7,1400.9 -6492.3,3831.3 -8986.8,6595.1 -938.3,1039.5 -1671.9,2049.8 -2498.8,2771.6l0 -0.1z"/>
  </g>
 </g>
</svg>
