<?xml version="1.0" encoding="UTF-8"?>
<!DOCTYPE svg PUBLIC "-//W3C//DTD SVG 1.1//EN" "http://www.w3.org/Graphics/SVG/1.1/DTD/svg11.dtd">
<!-- Creator: CorelDRAW -->
<svg xmlns="http://www.w3.org/2000/svg" xml:space="preserve" width="172.182mm" height="180.613mm" version="1.1" style="shape-rendering:geometricPrecision; text-rendering:geometricPrecision; image-rendering:optimizeQuality; fill-rule:evenodd; clip-rule:evenodd"
viewBox="0 0 172182 180613.4"
 xmlns:xlink="http://www.w3.org/1999/xlink"
 xmlns:xodm="http://www.corel.com/coreldraw/odm/2003">
 <defs>
  <style type="text/css">
   <![CDATA[
    .fil0 {fill:#2ECC71}
    .fil1 {fill:#3498DB}
    .fil2 {fill:#E74C3C}
   ]]>
  </style>
 </defs>
 <g id="Camada_x0020_1">
  <metadata id="CorelCorpID_0Corel-Layer"/>
  <g id="_2328470749296">
   <path class="fil0" d="M151759.2 104811.4c259.1,8954.7 -8.7,18233.4 6.2,27226.8 3.5,2104.7 386.2,2306.6 -2086,4696.5 -1812.2,1751.8 -3326.3,3688.3 -5103.8,5221.6 -2013.7,1737.1 -3148.4,3087.7 -5483.5,4847l-3780.4 2978.9c-3706.5,2659.3 -9238.9,5533.3 -13408.9,7244.3 -13845.6,5680.9 -32383.6,7077 -47215.9,3250 -4513.4,-1164.5 -8433.1,-2397.8 -12580.8,-4136.1 -649.4,-272.1 -1725.8,-884 -2309.9,-1049 -2353.6,-664.7 -11732.9,1313 -29259.9,-5122.3 -4590.5,-1685.5 -11496.1,-5294.3 -15493.6,-8359.9 -606,-464.7 -1463.8,-1203.6 -2012.1,-1471.9 2354.4,3539.8 4772.2,7352.3 7658.7,10478.3l5410 5661.2c1154,1270.1 6673.1,5738.5 7983.7,6662.1 9415.1,6635.4 18381,11044.8 30175.4,14140.2 9772.8,2564.8 22574.4,3986.4 33409.8,3413.6 2216.8,-117.2 4576.3,-402.7 6754.4,-566.7 7026.1,-529 17145.7,-3233.8 23501.2,-5803.2 8500.4,-3436.6 13774.8,-6877.5 20711.4,-12332.6 540.1,-424.7 1676.9,-1635.4 1991.1,-1797.9 2947,-1524.2 -2022.2,10043.5 7540.9,14257.1 4386.2,1932.7 8791.6,481.2 11235.3,-2024.6 3027.6,-3104.7 2623.5,-6809.2 2623.5,-12018.8l0 -58776.9c-0.6,-5113.4 726.5,-9606.2 -2072.8,-12768 -2737.9,-3092.4 -6502.6,-2876.1 -11823.3,-2880.6l-44317.5 -6.2c-6622.6,-3.9 -12710.1,-958.6 -15257.4,6424.1 -667.6,1934.6 -407.3,4888.4 238.2,6600.2 1201.4,3186.3 4388.6,5712.1 8638.4,5995 4512.8,300.5 10189.7,0.8 14831.2,1.5 9832,1.6 19664.5,16.3 29496.4,16.3z"/>
   <path class="fil1" d="M128830.9 114578.5c-2311.3,1.2 -4630.1,26.9 -6943.6,27.7l-5275 -32.3c-1596.9,-9.2 -1181.4,592.4 -3088.6,2150.5 -632.3,516.6 -1200.5,919.9 -1878.9,1499.4 -1096.9,937.4 -2703.3,2072.6 -4050.4,2909.4l-4201.6 2729.9c-1322.8,837.8 -2998.2,1762.5 -4498.1,2465.9 -1685.2,790.5 -3022.8,1539.2 -4676.1,2259.5 -6984.8,3043.1 -19459.4,7321.4 -26973.3,7584 -12071.3,421.9 -19288.1,689.8 -29487.5,-4322.1 -3996.1,-1963.5 -7410.3,-7503.1 -9492,-11359.6 -5267.2,-9758.1 -8031.8,-21383.4 -8620.3,-32962 -195.5,-3845.9 -115.4,-9560.9 438,-13185.5 1336.1,-8750.8 2436.7,-12911 5982.3,-21221.3 1266.7,-2969.1 3253.8,-6524.1 4924.5,-8981.4 2874.9,-4228.3 7543.2,-9840.4 11450.1,-12963.1 664.6,-531.1 1132.3,-1022 1796.8,-1574.6 1807.3,-1503.1 6237.1,-4447.7 8191.3,-5514 13520.1,-7377.4 26391.6,-10184.1 45609.4,-9037.4 3824.9,228.2 8328,1273.7 11748.5,2130.8 6888,1725.7 13623.6,4605.7 19546.2,8257.8 2478.7,1528.5 5992.1,4468.6 8414.8,5297.5 8378.6,2866.7 14907.2,-6394.2 9913,-13292.5 -1407.2,-1943.8 -5815.1,-4370.3 -8224.6,-5677.7 -9302.8,-5047.7 -20339.7,-9040.4 -31037.6,-10493.3 -12313.6,-1672.4 -13916.3,-1292.1 -26128.7,-1060 -14375.7,273.2 -31287.3,5341.6 -42750.7,12275.3 -3811.8,2305.5 -8652.6,5786 -11994.7,8847.7 -656.6,601.5 -1098.5,911.1 -1889.3,1673.6 -2942.5,2837.2 -5612.5,5741.4 -8193.3,9089.4l-5597.2 8108.5c-2122.7,3712.2 -5391.9,9997.1 -6739.4,14103 -565.2,1722.1 -1153.2,3450.7 -1690.1,5266.7 -4246,14359.6 -4939.3,34543.6 -256.4,48842 1140.5,3482.4 2460.6,6777.2 4176.9,9720.5 4133.6,7088.9 4706.3,7199.6 9040.2,11621.8 8434.2,8605.8 20698.8,13581.7 33203.3,15245 22087.8,2938.1 47920.4,-5555.6 64467.9,-17622.2l7821.8 -6073c1379.1,-1118 2429.9,-2244.8 3633.2,-3311.6 981.2,-869.9 2798.8,-2488.7 3329.2,-3422.3z"/>
   <path class="fil2" d="M99916.3 62762.9c-1833.8,-1879.4 -1931.5,-2589.1 -4761.9,-4645.5 -6451.4,-4687.3 -13937.1,-6612.2 -22378.1,-4482.7 -2925,737.9 -7456.1,2806.9 -9388.1,4693 -878.6,857.7 -1666.8,1341.1 -2545.7,2331.9 -14360.6,16191.3 -3337,39760.2 9026.6,53360.9l9390.8 9555.8c1518.8,-498.6 3206.3,-1144.3 4681.6,-1690.7l4717.3 -1855.4 -12121.8 -10801.2c-2159.6,-2122.8 -5510.9,-6641 -7326.7,-9216.6 -1496,-2121.8 -3708.2,-6105.4 -4673.1,-8652.7 -2766,-7302.3 -4390.3,-13868.9 -947.2,-21567.6 1128.6,-2523.6 3926.5,-5469.3 6302.5,-6835.7 2748.5,-1580.5 6338.1,-2871.8 10674,-2568.7 5698.7,398.3 9796.9,2635.8 12905.8,6734.7 1014.1,1336.9 1564,2725.7 2381.7,4195.3 692.1,1243.9 2049.9,2739.6 3531.9,3051.5 2258.3,475.4 3959.9,-636.4 4799.2,-1721.7 1824,-2358.5 523.7,-3175 4841.1,-8495 5731.6,-7062.4 19931.3,-7961.6 26603.4,1941.7 2149.1,3190 2583.4,5600.1 2942.5,10334.3l7856.8 6.6c-79.5,-5482.3 -1862.5,-11370.7 -5010.1,-15571.7 -6854.9,-9149.1 -19552,-11604.2 -30016.8,-7467.2 -3543.7,1400.8 -6492.3,3831.3 -8986.9,6595.1 -938.2,1039.5 -1671.8,2049.7 -2498.8,2771.6z"/>
  </g>
 </g>
</svg>
